<svg xmlns="http://www.w3.org/2000/svg" width="121" height="50" viewBox="0 0 121 50"><defs><style>.a{fill:#333679;}.a,.b{fill-rule:evenodd;}.b,.c{fill:#db291c;}</style></defs><g transform="translate(0.002 -0.012)"><g transform="translate(-0.002 0.012)"><path class="a" d="M44.757 13.179a3.248 3.248 0 1 0 2.306.97 3.24 3.24 0 0 0-2.306-.97"/><path class="a" d="m30.541 43.965-14.984.023a.136.136 0 0 1-.132-.135.146.146 0 0 1 .132-.144c2.34-.212 4.025-1.412 4.551-3.113.583-1.855 10.186-32.553 10.2-32.665-14.083-4-24.571-3.843-30.051 4.229a.13.13 0 0 1-.086.066.14.14 0 0 1-.108-.018.14.14 0 0 1-.061-.092.14.14 0 0 1 .025-.107C5.378 2.348 16.863-2.828 30.524 1.601c15.856 5.135 22.132 6.441 27.565 2.4l.2-.022.02.193c-2.932 3.1-8.527 7.751-21.875 5.251l-9.007 30.735c-.717 2.43 1.05 3.286 3.113 3.53.072.019.145.067.145.144a.147.147 0 0 1-.145.135"/><path class="a" d="M45.548 39.624h.2c.053.049.053.082-.016.211-1.85 3-4.4 4.278-6.49 4.278-2.8 0-4.969-1.606-3.791-5.782l4.147-14.707s6.082-2.07 6.582-2.225c.694-.26.908-.263.787.184-.046.168-4.466 15.441-4.874 16.846-.658 2.3 1.718 2.843 3.442 1.208"/><path class="a" d="M56.389 38.399c-.658 2.3 1.7 2.843 3.432 1.2h.2c.059.053.069.086 0 .211-1.836 3-4.393 4.278-6.486 4.278-2.794 0-4.973-1.6-3.791-5.779.464-1.771 8.033-27.677 8.033-27.677l7.053-2.379c.536-.191.329.329.194.767-.181.55-8.227 27.973-8.635 29.375"/><path class="a" d="m80.237 26.693-3.39 11.617c-1.6 1.622-2.886 2.4-4.137 2.373-1.78-.072-2.768-1.211-2.771-3.762 0-6.085 4.351-14.507 8.616-14.513 1.58 0 2.633 1.218 1.682 4.278m11.9-17.607s.244-.658.1-.77-.507.066-.773.158l-6.582 2.225-3.227 11.131a8.5 8.5 0 0 0-4.963-1.672c-6.447 0-14.151 7.862-14.125 15.928 0 5.868 3.837 7.964 7.263 7.958a10.06 10.06 0 0 0 6.821-2.668c.416 1.888 2.068 2.675 4.029 2.675 2.083 0 4.644-1.267 6.493-4.278.072-.128.069-.161 0-.211h-.194c-1.731 1.645-4.1 1.086-3.446-1.208.4-1.405 8.418-28.74 8.6-29.29"/><path class="a" d="m107.161 26.652-3.4 11.617c-1.586 1.622-2.866 2.4-4.127 2.373-1.771-.072-2.778-1.211-2.781-3.762 0-6.085 4.364-14.507 8.626-14.513 1.567 0 2.633 1.218 1.678 4.278m11.053 11.521h-.191c-3.966 3.518-8.807 4.133-7.378-.819.392-1.4 4.568-15.662 4.736-16.208.086-.329.217-.658.105-.757s-.507.049-.763.135l-5.085 1.728c-.987-1.251-3.291-2.169-6.1-2.162-6.447 0-14.151 7.862-14.135 15.928 0 5.864 3.837 7.964 7.263 7.958a10.15 10.15 0 0 0 7.148-2.962c1.264 3.739 7.711 5.15 14.4-2.633.092-.1.059-.148 0-.2"/><path class="b" d="m120.984 42.948-.023-.165-.046-.165-.066-.155-.082-.145-.1-.138-.1-.128-.119-.115-.125-.1-.141-.092-.148-.072-.158-.059-.161-.049-.168-.023h-.346l-.165.026-.165.043-.155.063-.151.076-.138.086-.128.109-.112.118-.109.122-.092.138-.072.148-.059.155-.049.165-.026.168v.342l.03.168.043.161.066.155.076.148.089.138.109.128.118.112.125.105.142.092.148.076.155.059.165.046.171.026h.355l.165-.026.165-.043.158-.066.145-.072.141-.1.132-.1.115-.118.105-.122.092-.138.076-.148.059-.155.049-.158.023-.168v-.168Zm-.28.329-.026.151-.039.145-.059.135-.079.128-.082.122-.1.112-.115.1-.122.082-.128.076-.142.063-.145.039-.151.026h-.316l-.155-.026-.145-.039-.138-.063-.128-.072-.122-.086-.115-.1-.092-.112-.086-.118-.076-.132-.062-.135-.039-.145-.026-.151v-.313l.026-.151.039-.145.059-.135.076-.128.086-.118.1-.115.112-.1.122-.082.128-.079.138-.059.145-.039.151-.026h.319l.151.026.145.043.142.056.128.076.122.086.115.092.1.115.082.118.076.128.059.135.043.145.026.151v.313Z"/><path class="b" d="M119.624 43.185a.41.41 0 0 0 .329-.392.39.39 0 0 0-.161-.329.83.83 0 0 0-.5-.122 3 3 0 0 0-.464.039v1.583h.267v-.687h.184a.293.293 0 0 1 .329.283 1.4 1.4 0 0 0 .115.411h.28a1.1 1.1 0 0 1-.109-.395c-.036-.24-.125-.365-.276-.388m-.349-.105h-.184v-.546a1 1 0 0 1 .184 0c.3 0 .4.142.4.28 0 .2-.184.28-.4.28"/><path class="c" d="m13.869 49.266 4.472-.145c2.849-.082 6.917-.188 11.8-.276 2.441-.043 5.085-.1 7.882-.125s5.747-.082 8.8-.1 6.193-.059 9.4-.063l9.714-.026 9.711.023c3.2 0 6.356.046 9.407.063s6 .063 8.8.1 5.44.082 7.882.128 4.678.092 6.659.142l5.137.135 4.472.145-4.472.148-5.137.135c-1.982.046-4.221.1-6.659.142s-5.085.092-7.882.125-5.747.079-8.8.1-6.193.063-9.407.063l-9.711.023-9.714-.023c-3.2 0-6.353-.046-9.4-.066s-6-.063-8.8-.1-5.44-.079-7.882-.125c-4.889-.086-8.948-.194-11.8-.276l-4.472-.145"/></g></g></svg>